<svg id="Capa_1" enable-background="new 0 0 512 512" height="512" viewBox="0 0 512 512" width="512" xmlns="http://www.w3.org/2000/svg"><g><g><g><path d="m386.046 110.65c3.437-4.867 1.21-11.669-4.435-13.577-13.574-4.587-27.631-1.632-34.752 8.451s-5.204 24.319 3.659 35.577c3.686 4.682 10.841 4.506 14.278-.361z" fill="#fb8627"/><path d="m264.133 69.651c-3.437 4.867-1.21 11.669 4.435 13.577 13.574 4.587 27.631 1.632 34.752-8.451s5.204-24.319-3.659-35.577c-3.686-4.682-10.841-4.506-14.278.361z" fill="#f2671f"/><path d="m303.316 74.775c-6.719 9.529-19.628 12.686-32.476 9.144 5.206-1.634 9.692-4.699 12.838-9.144 6.292-8.911 5.531-21.079-.873-31.562l2.578-3.653c3.441-4.861 10.595-5.044 14.279-.355 8.86 11.254 10.778 25.493 3.654 35.57z" fill="#e25010"/></g><circle cx="325.089" cy="90.15" fill="#fb7722" r="28.774"/><path d="m348.598 106.747c-9.168 12.982-27.131 16.075-40.113 6.907-8.265-5.837-12.52-15.24-12.138-24.649 1.745 2.314 3.883 4.407 6.386 6.175 12.982 9.168 30.931 6.077 40.099-6.905 3.325-4.709 5.038-10.072 5.244-15.43 7.325 9.72 7.917 23.432.522 33.902z" fill="#f2671f"/></g><g><path d="m447.569 278.831h-33.067c-4.204 0-7.612-3.407-7.612-7.612s3.407-7.611 7.612-7.611h33.067c7.494 0 13.59-6.096 13.59-13.59v-130.83c0-57.327-46.638-103.965-103.965-103.965h-202.387c-57.327 0-103.965 46.638-103.965 103.965v130.83c0 7.494 6.096 13.59 13.59 13.59h33.063c4.204 0 7.611 3.407 7.611 7.611s-3.407 7.612-7.611 7.612h-33.064c-15.887 0-28.813-12.926-28.813-28.813v-130.83c0-65.72 53.468-119.188 119.189-119.188h202.387c65.721 0 119.188 53.468 119.188 119.188v130.83c0 15.887-12.926 28.813-28.813 28.813z" fill="#845152"/></g><g><g><g><g><g><g><path d="m165.599 225.522h-67.149c-30.601 20.569-52.052 68.399-52.052 124.125 0 74.5 38.336 134.894 85.626 134.894s85.626-60.394 85.626-134.894c0-55.726-21.45-103.556-52.051-124.125z" fill="#e25010"/></g><g><path d="m413.55 225.522h-67.148c-30.601 20.569-52.052 68.399-52.052 124.125 0 74.5 38.336 134.894 85.626 134.894s85.626-60.394 85.626-134.894c-.001-55.726-21.451-103.556-52.052-124.125z" fill="#f2671f"/></g></g><path d="m128.446 225.522c-24.037 28.187-39.608 73.29-39.608 124.125 0 85.407 43.948 154.643 98.162 154.643 54.213 0 98.162-69.236 98.162-154.643 0-50.835-15.571-95.937-39.608-124.125z" fill="#f2671f"/><path d="m266.446 225.522c-24.037 28.187-39.608 73.29-39.608 124.125 0 85.407 43.948 154.643 98.162 154.643 54.213 0 98.162-69.236 98.162-154.643 0-50.835-15.571-95.937-39.608-124.125z" fill="#f2671f"/><path d="m348.599 225.522c24.037 28.189 39.611 73.292 39.611 124.123 0 76.003-34.811 139.221-80.685 152.211 5.676 1.601 11.511 2.438 17.478 2.438 54.206 0 98.163-69.247 98.163-154.65 0-50.834-15.575-95.936-39.614-124.123h-34.953z" fill="#e25010"/><g><path d="m196.22 225.522c-19.312 29.782-31.583 74.331-31.583 124.125 0 89.665 39.776 162.354 88.843 162.354s88.843-72.688 88.843-162.354c0-49.794-12.271-94.343-31.583-124.125z" fill="#fb8627"/><path d="m271.25 225.522c19.313 29.78 31.582 74.329 31.582 124.123 0 77.264-29.535 141.926-69.101 158.325 6.356 2.632 12.966 4.027 19.746 4.027 49.064 0 88.848-72.679 88.848-162.352 0-49.791-12.273-94.341-31.588-124.123z" fill="#fb7722"/></g></g></g></g><g><g><g><circle cx="179.906" cy="317.709" fill="#fcb44d" r="38.585"/><path d="m218.488 317.708c0 21.314-17.273 38.587-38.58 38.587-9.649 0-18.476-3.54-25.242-9.395.351.007.702.015 1.06.015 21.314 0 38.587-17.281 38.587-38.587 0-11.665-5.175-22.113-13.345-29.192 20.822.56 37.52 17.625 37.52 38.572z" fill="#fb9927"/></g><g><circle cx="332.094" cy="317.709" fill="#fcb44d" r="38.585"/><path d="m370.678 317.708c0 21.314-17.273 38.587-38.587 38.587-9.649 0-18.468-3.54-25.234-9.395.351.007.702.015 1.06.015 21.306 0 38.58-17.281 38.58-38.587 0-11.665-5.175-22.113-13.345-29.192 20.828.56 37.526 17.625 37.526 38.572z" fill="#fb9927"/></g></g><g><path d="m376.338 385.936c-21.523 42.784-67.316 83.127-120.339 83.127-53.015 0-98.816-40.343-120.339-83.127-3.48-6.915 4.055-14.152 10.858-10.448 12.853 7.005 28.867 10.998 47.035 13.242 2.272.281 4.08 2.059 4.387 4.328.462 3.418 1.172 7.559 2.246 11.678.85 3.261 3.841 5.508 7.211 5.508h11.552c4.124 0 7.468-3.344 7.468-7.468v-6.448c0-2.847 2.34-5.144 5.186-5.072 7.927.201 16.078.266 24.395.266 43.964 0 83.29-1.755 109.48-16.034 6.805-3.704 14.347 3.533 10.86 10.448z" fill="#fcb44d"/><path d="m376.339 385.936c-21.523 42.784-67.316 83.126-120.339 83.126-4.63 0-9.208-.306-13.719-.904 39.55-11.277 71.05-41.649 83.895-80.512 14.996-2.375 28.304-6.161 39.304-12.158 6.804-3.704 14.347 3.532 10.859 10.448z" fill="#fb9927"/></g></g></g><path d="m214.441 248.328c-67.377-2.72-116.943-11.904-116.943-22.804s49.485-20.074 116.791-22.804c-7.703 4.658-12.848 13.112-12.848 22.763 0 9.722 5.216 18.217 13 22.845z" fill="#9a5e5f"/><path d="m414.502 225.524c0 9.864-40.625 18.329-98.32 21.86 10.301-8.779 16.826-21.84 16.826-36.434 0-2.07-.132-4.11-.386-6.11 48.826 4.02 81.88 11.773 81.88 20.684z" fill="#9a5e5f"/><g fill="#845152"><path d="m214.441 248.328c-67.377-2.72-116.943-11.904-116.943-22.804 0-3.633 5.511-7.084 15.365-10.159 17.76 5.551 49.607 9.905 88.649 12.026.629 8.921 5.663 16.613 12.929 20.937z"/><path d="m256.365 249.15h-.365c-5.287 0-10.504-.041-15.659-.112 3.288-1.725 6.18-4.11 8.474-6.992 2.253 2.628 4.78 5.013 7.55 7.104z"/><path d="m414.502 225.524c0 9.864-40.625 18.329-98.32 21.86 6.576-5.602 11.61-12.95 14.391-21.322 29.827-2.375 53.96-6.13 68.564-10.697 9.854 3.075 15.365 6.525 15.365 10.159z"/></g><path d="m336.032 210.95c0 14.127-5.754 26.904-15.05 36.129-19.831 1.33-41.823 2.07-64.982 2.07-1.492 0-2.973 0-4.455-.01-10.575-9.327-17.253-22.977-17.253-38.189 0-28.092 22.774-50.875 50.865-50.875 28.102 0 50.875 22.784 50.875 50.875z" fill="#e89a5e"/><path d="m336.032 210.95c0 14.127-5.754 26.904-15.05 36.129-8.931.599-18.288 1.076-28.01 1.421-2.162-26.092-24.032-46.603-50.693-46.603-2.466 0-4.892.173-7.266.518 4.049-24.032 24.966-42.34 50.144-42.34 28.102 0 50.875 22.784 50.875 50.875z" fill="#d68a5a"/><g><g><path d="m315.522 203.653-12.087 44.421c-5.206.244-10.524.447-15.944.609l13.345-49.028c1.106-4.059 5.288-6.444 9.337-5.348 4.06 1.106 6.455 5.287 5.349 9.346z" fill="#915eb2"/></g><circle cx="320.006" cy="158.186" fill="#27e19d" r="57.197"/><path d="m375.197 173.202c-8.294 30.485-39.723 48.47-70.208 40.176-26.695-7.263-43.808-32.27-42.067-58.848 3.291 17.398 16.168 32.27 34.402 37.231 25.461 6.927 51.72-8.099 58.647-33.56 6.37-23.414-5.838-47.508-27.647-56.608 2.233.334 4.464.794 6.697 1.401 30.485 8.294 48.47 39.723 40.176 70.208z" fill="#1ec186"/><g><path d="m352.209 155.346c-1.177 10.656-6.424 20.216-14.797 26.924-7.185 5.764-15.944 8.819-25.027 8.819-1.482 0-2.974-.081-4.466-.244-12.818-1.411-24.316-7.733-32.384-17.791-6.972-8.697-10.656-19.303-10.605-30.294 6.942-24.824 29.289-41.264 53.849-41.772-19.759 2.081-36.16 17.709-38.423 38.26-.974 8.768 1.532 17.395 7.063 24.286 5.521 6.881 13.386 11.214 22.165 12.178 13.65 1.502 25.991-8.383 27.493-22.043 1.116-10.088-6.191-19.201-16.289-20.307-3.501-.396-6.952.609-9.702 2.821-2.75 2.202-4.476 5.348-4.861 8.86-.467 4.171-4.222 7.185-8.403 6.729-4.181-.467-7.195-4.222-6.728-8.403.822-7.551 4.547-14.32 10.473-19.069 5.927-4.75 13.346-6.911 20.896-6.069 18.431 2.031 31.776 18.674 29.746 37.115z" fill="#1ec186"/></g></g><g><g><path d="m213.702 83.978c-2.218-5.531-9.138-7.357-13.807-3.655-11.227 8.902-16.386 22.308-11.792 33.765s17.587 17.585 31.853 16.263c5.933-.55 9.674-6.651 7.456-12.182z" fill="#915eb2"/><path d="m219.952 130.349c-5.206.477-10.24-.03-14.756-1.431 2.669-4.597 4.202-10.037 4.202-15.873 0-11.833-6.323-22.063-15.487-26.884 1.735-2.091 3.745-4.059 5.988-5.835 4.668-3.704 11.59-1.877 13.802 3.653l13.711 34.191c2.222 5.532-1.523 11.631-7.46 12.179z" fill="#804ea0"/><path d="m113.032 164.035c2.218 5.531 9.138 7.357 13.807 3.655 11.227-8.902 16.386-22.308 11.792-33.765s-17.587-17.585-31.853-16.263c-5.933.55-9.674 6.651-7.456 12.182z" fill="#804ea0"/><path d="m126.838 167.686c-4.668 3.704-11.59 1.878-13.802-3.653l-1.208-3.024c7.683-8.545 10.666-19.506 6.82-29.106-2.527-6.333-7.632-11.032-14.096-13.741.7-.254 1.441-.426 2.222-.497 14.269-1.319 27.259 4.8 31.857 16.258 4.597 11.457-.569 24.863-11.793 33.763z" fill="#6e4189"/></g><circle cx="163.367" cy="124.006" fill="#915eb2" r="28.774"/><path d="m190.075 113.291c5.915 14.751-1.251 31.511-16.002 37.426-9.391 3.766-19.598 2.227-27.287-3.207 2.891-.208 5.809-.864 8.654-2.005 14.751-5.915 21.911-22.662 15.996-37.413-2.145-5.35-5.717-9.702-10.103-12.787 12.14-.866 23.972 6.089 28.742 17.986z" fill="#804ea0"/></g><g><g><path d="m174.087 190.55c-4.537 3.863-4.065 11.005.931 14.252 12.013 7.809 26.364 8.431 35.762.428s11.07-22.27 5.275-35.374c-2.41-5.45-9.385-7.053-13.922-3.19z" fill="#f82f40"/><path d="m210.777 205.226c-9.255 7.886-23.332 7.409-35.236-.101 6.394.213 12.463-1.624 17.253-5.704 8.302-7.074 10.575-19.029 6.992-30.761l2.344-1.989c4.537-3.867 11.519-2.263 13.924 3.187 5.796 13.102 4.121 27.371-5.277 35.368z" fill="#e22334"/></g><path d="m246.714 247.424c-.7.589-1.411 1.147-2.152 1.664-11.823-.122-23.291-.446-34.262-.934-1.492-1.157-2.882-2.486-4.151-3.978-10.301-12.097-8.85-30.263 3.258-40.564 12.097-10.301 30.253-8.85 40.554 3.258 10.312 12.098 8.85 30.254-3.247 40.554z" fill="#fb4a59"/><path d="m246.714 247.424c-.7.589-1.411 1.147-2.152 1.664-9.489-.101-18.745-.325-27.696-.67 11.986-2.73 21.302-13 22.266-25.899.791-10.514-4.171-20.125-12.229-25.747 8.525-.335 17.1 3.095 23.058 10.098 10.312 12.098 8.85 30.254-3.247 40.554z" fill="#f82f40"/></g></g></svg>