<svg id="Capa_1" enable-background="new 0 0 512 512" height="512" viewBox="0 0 512 512" width="512" xmlns="http://www.w3.org/2000/svg"><g><g><g><g><g><path d="m132.607 496.362-14.504-5.914c-5.187-2.115-7.677-8.034-5.562-13.221l29.712-72.868c2.115-5.187 8.034-7.677 13.221-5.562l14.504 5.914c5.187 2.115 7.677 8.034 5.562 13.221l-29.712 72.868c-2.114 5.186-8.034 7.677-13.221 5.562z" fill="#9a5e5f"/><path d="m175.543 417.927-18.662 45.773c-10.842-5.781-21.086-12.546-30.57-20.234l15.944-39.109c2.11-5.183 8.033-7.678 13.216-5.558l14.504 5.913c5.192 2.109 7.677 8.032 5.568 13.215z" fill="#845152"/></g><g><path d="m379.399 496.362 14.504-5.914c5.187-2.115 7.677-8.034 5.562-13.221l-29.712-72.868c-2.115-5.187-8.034-7.677-13.221-5.562l-14.504 5.914c-5.187 2.115-7.677 8.034-5.562 13.221l29.712 72.868c2.115 5.186 8.034 7.677 13.221 5.562z" fill="#9a5e5f"/><path d="m385.696 443.455c-9.483 7.698-19.727 14.463-30.57 20.234l-18.662-45.763c-2.11-5.183.375-11.106 5.568-13.216l14.504-5.913c5.183-2.12 11.106.375 13.216 5.558z" fill="#845152"/></g></g><g><g><path d="m436.347 320.082c-24.123 0-43.749-19.626-43.749-43.749 0-24.124 19.626-43.749 43.749-43.749 24.124 0 43.75 19.626 43.75 43.749 0 24.124-19.626 43.749-43.75 43.749zm0-72.045c-15.603 0-28.296 12.694-28.296 28.297s12.694 28.296 28.296 28.296c15.603 0 28.297-12.694 28.297-28.296 0-15.604-12.694-28.297-28.297-28.297z" fill="#3a363a"/></g><g><path d="m75.653 320.082c-24.124 0-43.749-19.626-43.749-43.749 0-24.124 19.626-43.749 43.749-43.749s43.749 19.626 43.749 43.749c0 24.124-19.626 43.749-43.749 43.749zm0-72.045c-15.603 0-28.297 12.694-28.297 28.297s12.694 28.296 28.297 28.296 28.296-12.694 28.296-28.296c0-15.604-12.693-28.297-28.296-28.297z" fill="#433f43"/></g></g><g><path d="m405.057 214.778c13.405-15.969 11.066-32.621 11.066-32.621h-320.249s-2.339 16.651 11.065 32.62c9.637 11.48 10.907 27.695 2.995 40.426-12.256 19.723-19.201 42.223-19.201 66.11 0 77.983 73.992 141.2 165.265 141.2s165.265-63.217 165.265-141.2c0-23.889-6.945-46.391-19.203-66.114-7.909-12.729-6.639-28.942 2.997-40.421z" fill="#554e55"/><path d="m421.262 321.317c0 77.976-73.99 141.194-165.262 141.194-6.593 0-13.094-.335-19.484-.974 82.104-8.236 145.789-67.874 145.789-140.22 0-23.896-6.948-46.392-19.21-66.119-7.911-12.729-6.633-28.947 3.002-40.418 13.398-15.974 11.066-32.618 11.066-32.618h38.957s2.343 16.644-11.065 32.618c-9.635 11.471-10.903 27.689-2.992 40.418 12.262 19.728 19.199 42.224 19.199 66.119z" fill="#433f43"/></g><ellipse cx="256" cy="182.157" fill="#6e4189" rx="160.126" ry="27.37"/><path d="m416.121 182.157c0 4.44-6.181 8.633-17.152 12.342-26.393-8.921-80.498-15.041-142.969-15.041s-116.575 6.119-142.969 15.041c-10.971-3.709-17.152-7.902-17.152-12.342 0-15.113 71.69-27.372 160.121-27.372s160.121 12.259 160.121 27.372z" fill="#804ea0"/><g><path d="m263.835 512h-15.663c-5.602 0-10.143-4.541-10.143-10.143v-78.692c0-5.602 4.541-10.143 10.143-10.143h15.663c5.602 0 10.142 4.541 10.142 10.143v78.692c0 5.602-4.541 10.143-10.142 10.143z" fill="#b88081"/></g></g><g><path d="m413.07 21.171-87.601 185.659c-10.65.872-21.958 1.552-33.764 2.018l94.518-200.345c3.499-7.404 12.343-10.579 19.758-7.079 7.414 3.489 10.588 12.333 7.089 19.747z" fill="#9a5e5f"/></g><path d="m336.622 183.177-11.157 23.653c-10.642.876-21.953 1.556-33.759 2.019l13.248-28.093c11.136.618 21.747 1.432 31.668 2.421z" fill="#845152"/></g><g><path d="m192.682 186.815c-.624 0-1.257-.076-1.89-.235-15.634-3.931-28.827-13.634-37.15-27.322-8.345-13.724-10.797-29.806-6.904-45.285 5.929-23.576 30.162-37.878 54.024-31.876 17.942 4.512 28.908 22.617 24.447 40.36-1.669 6.637-5.853 12.214-11.782 15.702-5.892 3.467-12.806 4.454-19.472 2.777-10.898-2.74-17.555-13.757-14.84-24.558 1.04-4.138 5.241-6.652 9.377-5.609 4.138 1.04 6.65 5.238 5.609 9.377-.638 2.538.987 5.142 3.622 5.805 2.702.68 5.495.286 7.868-1.11 2.335-1.374 3.979-3.558 4.632-6.151 2.384-9.48-3.551-19.172-13.229-21.606-15.596-3.918-31.419 5.345-35.27 20.658-2.875 11.434-1.056 23.327 5.122 33.488 6.2 10.197 16.043 17.429 27.715 20.364 4.138 1.04 6.649 5.239 5.609 9.377-.882 3.506-4.031 5.844-7.488 5.844z" fill="#5f377c"/></g><g><path d="m280.77 122.29c-3.072 0-6.167-.381-9.226-1.15-15.153-3.81-24.414-19.11-20.644-34.105 2.951-11.736 14.989-18.865 26.838-15.881 9.532 2.397 15.353 12.04 12.976 21.494-1.04 4.138-5.238 6.651-9.377 5.609-4.139-1.04-6.65-5.238-5.609-9.377.299-1.191-.489-2.42-1.759-2.739-3.583-.901-7.209 1.192-8.083 4.664-1.693 6.731 2.536 13.618 9.427 15.351 5.646 1.42 11.493.592 16.463-2.332 4.934-2.902 8.411-7.527 9.793-13.023 2.277-9.052.714-18.399-4.399-26.32-2.314-3.586-1.284-8.368 2.301-10.682 3.585-2.313 8.368-1.285 10.682 2.301 7.353 11.39 9.686 25.411 6.402 38.469-2.398 9.54-8.416 17.556-16.943 22.573-5.789 3.403-12.263 5.147-18.842 5.148z" fill="#5f377c"/></g><g><path d="m134.662 75.097c-3.072 0-6.168-.381-9.226-1.15-15.153-3.81-24.414-19.11-20.644-34.105 2.951-11.736 14.991-18.858 26.838-15.881 9.533 2.398 15.354 12.04 12.976 21.494-1.04 4.138-5.234 6.649-9.378 5.608-4.138-1.041-6.649-5.239-5.608-9.378.3-1.191-.489-2.42-1.759-2.739-3.582-.9-7.209 1.191-8.082 4.664-1.693 6.731 2.536 13.618 9.427 15.351 5.646 1.42 11.493.592 16.463-2.332 4.934-2.902 8.411-7.527 9.793-13.023 2.276-9.053.714-18.4-4.399-26.32-2.314-3.586-1.284-8.368 2.301-10.682 3.585-2.313 8.368-1.285 10.682 2.301 7.352 11.389 9.686 25.41 6.402 38.469-2.398 9.54-8.416 17.556-16.943 22.573-5.789 3.406-12.264 5.15-18.843 5.15z" fill="#5f377c"/></g><g><g id="XMLID_557_"><path d="m418.168 113.616c-.112 0-.223-.002-.336-.007-4.264-.182-7.571-3.786-7.389-8.049l.013-.306c.183-4.264 3.788-7.577 8.049-7.389 4.264.182 7.571 3.786 7.389 8.049l-.013.306c-.177 4.151-3.598 7.396-7.713 7.396z" fill="#895eaa"/></g><g id="XMLID_555_"><path d="m418.255 146.618c-.116 0-.232-.003-.349-.008-4.263-.189-7.565-3.799-7.376-8.061l.014-.306c.189-4.264 3.81-7.563 8.061-7.376 4.263.189 7.565 3.799 7.376 8.061l-.014.306c-.183 4.147-3.603 7.384-7.712 7.384z" fill="#895eaa"/></g><g id="XMLID_554_"><path d="m402.565 130.017c-.128 0-.257-.003-.386-.01l-.287-.014c-4.262-.21-7.547-3.835-7.338-8.097s3.849-7.552 8.096-7.338l.287.014c4.262.21 7.547 3.835 7.338 8.097-.203 4.133-3.618 7.348-7.71 7.348z" fill="#895eaa"/></g><g id="XMLID_239_"><path d="m434.159 129.926c-.129 0-.257-.003-.386-.01l-.286-.014c-4.262-.209-7.547-3.835-7.337-8.097.21-4.263 3.843-7.545 8.097-7.337l.286.014c4.262.209 7.547 3.835 7.337 8.097-.203 4.133-3.619 7.347-7.711 7.347z" fill="#895eaa"/></g></g><g><g id="XMLID_562_"><path d="m234.376 26.056c-.116 0-.232-.003-.349-.008-4.263-.189-7.565-3.799-7.376-8.061l.014-.306c.189-4.264 3.804-7.56 8.061-7.376 4.263.189 7.565 3.799 7.376 8.061l-.014.306c-.184 4.146-3.603 7.384-7.712 7.384z" fill="#895eaa"/></g><g id="XMLID_561_"><path d="m234.462 59.057c-.116 0-.232-.003-.349-.008-4.263-.189-7.565-3.799-7.376-8.061l.014-.306c.189-4.264 3.809-7.564 8.061-7.376 4.263.189 7.565 3.799 7.376 8.061l-.014.306c-.183 4.147-3.603 7.384-7.712 7.384z" fill="#895eaa"/></g><g id="XMLID_559_"><path d="m218.772 42.456c-.124 0-.247-.003-.372-.009l-.286-.014c-4.263-.202-7.554-3.821-7.352-8.084.203-4.262 3.827-7.56 8.084-7.352l.286.014c4.263.202 7.554 3.821 7.352 8.084-.197 4.138-3.614 7.361-7.712 7.361z" fill="#895eaa"/></g><g id="XMLID_558_"><path d="m250.367 42.365c-.129 0-.257-.003-.386-.01l-.286-.014c-4.262-.209-7.547-3.835-7.337-8.097.209-4.263 3.849-7.55 8.097-7.337l.286.014c4.262.209 7.547 3.835 7.337 8.097-.204 4.133-3.619 7.347-7.711 7.347z" fill="#895eaa"/></g></g><g><g id="XMLID_568_"><path d="m98.354 125.148c-.116 0-.232-.003-.349-.008-4.263-.189-7.565-3.799-7.376-8.061l.014-.306c.189-4.264 3.81-7.567 8.061-7.376 4.263.189 7.565 3.799 7.376 8.061l-.014.306c-.184 4.146-3.603 7.384-7.712 7.384z" fill="#895eaa"/></g><g id="XMLID_567_"><path d="m98.44 158.15c-.112 0-.223-.002-.336-.007-4.264-.182-7.571-3.786-7.389-8.049l.013-.306c.183-4.264 3.798-7.576 8.049-7.389 4.264.182 7.571 3.786 7.389 8.049l-.013.306c-.177 4.15-3.598 7.396-7.713 7.396z" fill="#895eaa"/></g><g id="XMLID_565_"><path d="m82.75 141.548c-.129 0-.257-.003-.386-.01l-.286-.014c-4.262-.209-7.547-3.835-7.337-8.097.21-4.263 3.836-7.544 8.097-7.337l.286.014c4.262.209 7.547 3.835 7.337 8.097-.204 4.133-3.619 7.347-7.711 7.347z" fill="#895eaa"/></g><g id="XMLID_564_"><path d="m114.345 141.458c-.128 0-.257-.003-.386-.01l-.287-.014c-4.262-.21-7.547-3.835-7.338-8.097s3.844-7.555 8.096-7.338l.287.014c4.262.21 7.547 3.835 7.338 8.097-.202 4.133-3.617 7.348-7.71 7.348z" fill="#895eaa"/></g></g></g></svg>