<svg id="Capa_1" enable-background="new 0 0 512 512" height="512" viewBox="0 0 512 512" width="512" xmlns="http://www.w3.org/2000/svg"><g><path d="m256 22c-135.31 0-245 109.69-245 245 0 75.064 33.769 142.23 86.931 187.171h1.679l40.541-30.082-52.689-73.764c-.889-1.244-1.001-2.797-.302-4.155.699-1.359 2.029-2.17 3.557-2.17h48.176c1.826 19.225 6.453 36.723 13.063 49.357 6.926 13.241 15.761 20.534 24.877 20.534 4.552 0 9.028-1.813 13.305-5.387 6.665 11.106 14.555 16.976 22.818 16.976 6.697 0 13.306-3.985 19.113-11.523 6.887 12.363 15.163 18.898 23.933 18.898s17.046-6.535 23.933-18.898c5.808 7.539 12.417 11.523 19.113 11.523 8.263 0 16.153-5.87 22.818-16.976 4.276 3.574 8.752 5.387 13.305 5.387 9.116 0 17.952-7.292 24.877-20.534 6.609-12.635 11.237-30.133 13.063-49.357h48.176c1.528 0 2.857.811 3.557 2.17.699 1.358.586 2.912-.302 4.155l-52.689 73.764 40.541 30.082h1.679c53.158-44.941 86.927-112.107 86.927-187.171 0-135.31-109.69-245-245-245z" fill="#c35ac7"/><path d="m421.284 343h-49.087c-3.592 39.862-18.829 69.891-37.028 69.891-4.311 0-8.572-1.734-12.664-5.154l-.897-.75-.602 1.002c-6.474 10.789-14.068 16.491-21.96 16.491-6.375 0-12.71-3.85-18.321-11.134l-.927-1.203-.739 1.327c-6.7 12.028-14.674 18.385-23.059 18.385s-16.359-6.357-23.059-18.385l-.739-1.327-.927 1.203c-5.611 7.284-11.946 11.134-18.321 11.134-7.893 0-15.486-5.702-21.96-16.491l-.602-1.002-.897.75c-4.092 3.42-8.353 5.154-12.664 5.154-18.199 0-33.436-30.029-37.028-69.891h-49.087c-4.067 0-6.432 4.597-4.069 7.906l52.118 72.965-40.835 30.3c42.668 36.07 97.824 57.829 158.07 57.829s115.402-21.759 158.069-57.829l-40.835-30.299 52.118-72.966c2.365-3.309-.001-7.906-4.068-7.906z" fill="#5d3f9a"/><path d="m173.042 413.469c-12.124-2.69-22.617-18.148-28.882-40.434l-15.806-22.128c-2.364-3.309.002-7.906 4.069-7.906h-41.707c-4.067 0-6.432 4.597-4.069 7.906l52.118 72.965-40.835 30.3c7.95 6.721 16.336 12.944 25.105 18.623l50.447-42.969c3.953-3.367 4.671-9.2 1.653-13.425z" fill="#4b3087"/><path d="m280.725 413.347-.927-1.203-.739 1.327c-6.7 12.028-14.674 18.385-23.059 18.385s-16.359-6.357-23.059-18.385l-.739-1.327-.927 1.203c-3.529 4.581-7.344 7.801-11.275 9.562v12.047c0 19.882 16.118 36 36 36 19.882 0 36-16.118 36-36v-12.047c-3.931-1.762-7.747-4.982-11.275-9.562z" fill="#ca6e59"/><path d="m250 434.956v-3.158c-6.695-2.379-12.824-8.674-17.928-17.832-3.69 4.791-7.756 8.238-12.072 10.05v10.94c0 19.882 16.118 36 36 36 5.355 0 10.432-1.178 15-3.275-12.391-5.69-21-18.198-21-32.725z" fill="#bb5d4c"/><g><g><g><g fill="#fb8801"><path d="m175.123 336.535c0-19.833 2.805-38.58 8.112-54.213l.449-1.321h-40.619c-3.223 12.963-5.065 27.961-5.065 43.945 0 49.123 17.386 88.945 38.832 88.945 4.951 0 9.684-2.126 14.038-5.995-9.531-15.984-15.747-42.015-15.747-71.361z"/><path d="m328.316 281 .449 1.321c5.307 15.634 8.112 34.381 8.112 54.213 0 29.346-6.216 55.377-15.747 71.361 4.354 3.869 9.087 5.995 14.038 5.995 21.446 0 38.832-39.822 38.832-88.945 0-15.984-1.842-30.982-5.065-43.945z"/></g><g fill="#fea613"><path d="m218.168 343.91c0-23.098 3.866-44.946 10.885-61.52l.588-1.39h-47.019c-5.318 15.219-8.501 34.524-8.501 55.535 0 49.123 17.386 88.945 38.832 88.945 7.208 0 13.955-4.504 19.74-12.341-8.836-16.113-14.525-41.156-14.525-69.229z"/><path d="m282.358 281 .588 1.39c7.019 16.574 10.885 38.422 10.885 61.52 0 28.074-5.688 53.116-14.526 69.229 5.785 7.838 12.532 12.341 19.74 12.341 21.446 0 38.832-39.822 38.832-88.945 0-21.01-3.182-40.315-8.501-55.535z"/></g><path d="m228.549 281c-7.031 16.097-11.381 38.34-11.381 62.91 0 49.123 17.385 88.945 38.832 88.945s38.832-39.822 38.832-88.945c0-24.57-4.349-46.813-11.381-62.91z" fill="#fb8801"/></g><path d="m303.729 354.227v12.621c0 1.265-1.025 2.29-2.29 2.29h-22.793c-1.265 0-2.29-1.025-2.29-2.29v-4.789c0-1.376-1.202-2.427-2.569-2.269-5.105.59-10.34.906-15.68.906-4.82 0-9.552-.263-14.182-.746-1.359-.142-2.546.907-2.546 2.274v4.625c0 1.265-1.025 2.29-2.29 2.29h-22.793c-1.265 0-2.29-1.025-2.29-2.29v-12.052c0-.955-.599-1.802-1.493-2.138-6.582-2.473-12.724-5.457-18.31-8.888-1.74-1.069-3.893.549-3.401 2.531 5.376 21.679 20.951 39.323 41.337 47.565 1.507.609 3.157-.504 3.157-2.13v-5.101c0-1.265 1.025-2.29 2.29-2.29h41.042c1.265 0 2.29 1.025 2.29 2.29v5.102c0 1.626 1.65 2.739 3.157 2.13 20.387-8.242 35.962-25.887 41.338-47.567.493-1.986-1.664-3.595-3.407-2.523-5.16 3.172-10.794 5.965-16.812 8.324-.88.342-1.465 1.182-1.465 2.125z" fill="#5d3f9a"/><g><path d="m221.692 369.138h-5.396c-1.265 0-2.29-1.025-2.29-2.29v-12.052c0-.03-.012-.056-.013-.086-.17-.437-.334-.877-.496-1.318-.255-.319-.583-.583-.984-.734-6.582-2.473-12.724-5.457-18.31-8.888-1.74-1.069-3.893.549-3.401 2.531 5.376 21.679 20.951 39.323 41.337 47.565 1.507.609 3.157-.504 3.157-2.13v-5.101c0-.869.49-1.616 1.204-2.004-5.699-4.365-10.699-9.595-14.808-15.493z" fill="#4b3087"/></g><g><circle cx="212.142" cy="316.619" fill="#5d3f9a" r="17.75"/><path d="m210 316.619c0-6.999 4.061-13.034 9.946-15.924-2.358-1.158-5-1.826-7.804-1.826-9.803 0-17.75 7.947-17.75 17.75s7.947 17.75 17.75 17.75c2.804 0 5.446-.668 7.804-1.826-5.885-2.889-9.946-8.925-9.946-15.924z" fill="#4b3087"/><circle cx="304.072" cy="316.619" fill="#5d3f9a" r="17.75"/></g><path d="m253.545 320.047-11.947 20.693c-2.028 3.512.507 7.902 4.562 7.902h23.894c4.055 0 6.59-4.39 4.562-7.902l-11.947-20.693c-2.027-3.512-7.096-3.512-9.124 0z" fill="#5d3f9a"/><path d="m255.714 340.74 9.451-16.37-2.496-4.323c-2.028-3.512-7.097-3.512-9.124 0l-11.947 20.693c-2.028 3.512.507 7.902 4.562 7.902h14.116c-4.055 0-6.59-4.39-4.562-7.902z" fill="#4b3087"/></g></g><g><path d="m425.085 273.087-63.076-50.16h-68.176c-.799 4.149-4.454 7.295-8.833 7.295h-58c-4.379 0-8.034-3.146-8.833-7.295h-68.176l-63.076 50.16c-3.705 2.946-1.622 8.913 3.112 8.913h331.947c4.733 0 6.816-5.967 3.111-8.913z" fill="#5d3f9a"/><g><path d="m138.931 273.087 61.819-49.16h-52.017l-61.819 49.16c-3.704 2.946-1.621 8.913 3.113 8.913h52.017c-4.734 0-6.818-5.967-3.113-8.913z" fill="#4b3087"/></g><path d="m227 186.018h58c4.379 0 8.033 3.146 8.833 7.295h61.998l-67.692-134.519c-3.053-6.066.7-13.346 7.412-14.379l36.352-5.594c4.954-.762 5.83-7.529 1.233-9.527l-63.77-27.723c-7.393-3.675-16.366-.686-20.077 6.689l-93.121 185.052h61.998c.801-4.148 4.455-7.294 8.834-7.294z" fill="#5d3f9a"/><path d="m198.551 192.313 91.466-181.764-20.65-8.977c-7.393-3.675-16.366-.686-20.077 6.689l-92.618 184.053h41.879z" fill="#4b3087"/><g fill="#fea613"><path d="m218 221.222v-26.204c0-.942.147-1.851.417-2.705h-74.917c-2.761 0-5 2.239-5 5v21.613c0 2.761 2.239 5 5 5h74.917c-.27-.854-.417-1.762-.417-2.704z"/><path d="m368.5 192.313h-74.917c.27.854.417 1.763.417 2.705v26.204c0 .942-.147 1.851-.417 2.705h74.917c2.761 0 5-2.239 5-5v-21.613c0-2.762-2.239-5.001-5-5.001z"/></g><path d="m179 218.926v-21.613c0-2.761 2.239-5 5-5h-40.5c-2.761 0-5 2.239-5 5v21.613c0 2.761 2.239 5 5 5h40.5c-2.761 0-5-2.238-5-5z" fill="#fb8801"/><path d="m285 231.222h-58c-5.523 0-10-4.477-10-10v-26.204c0-5.523 4.477-10 10-10h58c5.523 0 10 4.477 10 10v26.204c0 5.523-4.477 10-10 10z" fill="#fff"/><path d="m247 221.222v-26.204c0-5.523 4.477-10 10-10h-30c-5.523 0-10 4.477-10 10v26.204c0 5.523 4.477 10 10 10h30c-5.523 0-10-4.477-10-10z" fill="#fbf0ff"/></g><path d="m301.93 316.619c0-6.999 4.061-13.034 9.946-15.924-2.358-1.158-5-1.826-7.804-1.826-9.803 0-17.75 7.947-17.75 17.75s7.947 17.75 17.75 17.75c2.804 0 5.446-.668 7.804-1.826-5.885-2.889-9.946-8.925-9.946-15.924z" fill="#4b3087"/></g></svg>